{
  "accessors": [
    {
      "bufferView": 2,
      "componentType": 5126,
      "count": 4881,
      "max": [
        360.69671630859375,
        88.812004089355469,
        88.812019348144531
      ],
      "min": [
        -355.97164916992188,
        -88.81201171875,
        -88.812019348144531
      ],
      "type": "VEC3"
    },
    {
      "bufferView": 2,
      "byteOffset": 58572,
      "componentType": 5126,
      "count": 4881,
      "max": [
        1,
        1,
        1
      ],
      "min": [
        -1,
        -1,
        -1
      ],
      "type": "VEC3"
    },
    {
      "bufferView": 3,
      "componentType": 5126,
      "count": 4881,
      "max": [
        1,
        0.99918955564498901,
        1,
        1
      ],
      "min": [
        -1,
        -0.99972212314605713,
        -1,
        1
      ],
      "type": "VEC4"
    },
    {
      "bufferView": 1,
      "componentType": 5126,
      "count": 4881,
      "max": [
        0.99641597270965576,
        0.97508716583251953
      ],
      "min": [
        0.0019450000254437327,
        0.0019450000254437327
      ],
      "type": "VEC2"
    },
    {
      "bufferView": 0,
      "componentType": 5125,
      "count": 15534,
      "max": [
        4880
      ],
      "min": [
        0
      ],
      "type": "SCALAR"
    }
  ],
  "asset": {
    "extras": {
      "author": "Warkarma (https://sketchfab.com/warkarma)",
      "license": "CC-BY-4.0 (http://creativecommons.org/licenses/by/4.0/)",
      "source": "https://sketchfab.com/3d-models/mark-17-nuclear-bomb-c62ba519acc648bb8926aece847877c3",
      "title": "Mark 17 - Nuclear Bomb"
    },
    "generator": "Sketchfab-7.93.0",
    "version": "2.0"
  },
  "bufferViews": [
    {
      "buffer": 0,
      "byteLength": 62136,
      "byteOffset": 0,
      "name": "floatBufferViews",
      "target": 34963
    },
    {
      "buffer": 0,
      "byteLength": 39048,
      "byteOffset": 62136,
      "byteStride": 8,
      "name": "floatBufferViews",
      "target": 34962
    },
    {
      "buffer": 0,
      "byteLength": 117144,
      "byteOffset": 101184,
      "byteStride": 12,
      "name": "floatBufferViews",
      "target": 34962
    },
    {
      "buffer": 0,
      "byteLength": 78096,
      "byteOffset": 218328,
      "byteStride": 16,
      "name": "floatBufferViews",
      "target": 34962
    }
  ],
  "buffers": [
    {
      "byteLength": 296424,
      "uri": "scene.bin"
    }
  ],
  "images": [
    {
      "uri": "textures/M17_Material_baseColor.png"
    },
    {
      "uri": "textures/M17_Material_metallicRoughness.png"
    },
    {
      "uri": "textures/M17_Material_normal.png"
    }
  ],
  "materials": [
    {
      "doubleSided": true,
      "name": "M17_Material",
      "normalTexture": {
        "index": 2,
        "scale": 1,
        "texCoord": 0
      },
      "pbrMetallicRoughness": {
        "baseColorFactor": [
          1,
          1,
          1,
          1
        ],
        "baseColorTexture": {
          "index": 0,
          "texCoord": 0
        },
        "metallicFactor": 1,
        "metallicRoughnessTexture": {
          "index": 1,
          "texCoord": 0
        },
        "roughnessFactor": 0.72505245569999999
      }
    }
  ],
  "meshes": [
    {
      "name": "M17_M17_Material_0",
      "primitives": [
        {
          "attributes": {
            "NORMAL": 1,
            "POSITION": 0,
            "TANGENT": 2,
            "TEXCOORD_0": 3
          },
          "indices": 4,
          "material": 0,
          "mode": 4
        }
      ]
    }
  ],
  "nodes": [
    {
      "children": [
        1
      ],
      "name": "RootNode (gltf orientation matrix)",
      "rotation": [
        -0.70710678118654746,
        -0,
        -0,
        0.70710678118654757
      ]
    },
    {
      "children": [
        2
      ],
      "name": "RootNode (model correction matrix)"
    },
    {
      "children": [
        3
      ],
      "matrix": [
        1,
        0,
        0,
        0,
        0,
        0,
        1,
        0,
        0,
        -1,
        0,
        0,
        0,
        0,
        0,
        1
      ],
      "name": "M17.FBX"
    },
    {
      "children": [
        4
      ],
      "name": "RootNode"
    },
    {
      "children": [
        5
      ],
      "matrix": [
        1,
        0,
        0,
        0,
        0,
        2.2204460492503131e-16,
        -1,
        0,
        0,
        1,
        2.2204460492503131e-16,
        0,
        0,
        0,
        0,
        1
      ],
      "name": "M17"
    },
    {
      "mesh": 0,
      "name": "M17_M17_Material_0"
    }
  ],
  "samplers": [
    {
      "magFilter": 9729,
      "minFilter": 9987,
      "wrapS": 10497,
      "wrapT": 10497
    }
  ],
  "scene": 0,
  "scenes": [
    {
      "name": "OSG_Scene",
      "nodes": [
        0
      ]
    }
  ],
  "textures": [
    {
      "sampler": 0,
      "source": 0
    },
    {
      "sampler": 0,
      "source": 1
    },
    {
      "sampler": 0,
      "source": 2
    }
  ]
}

